<svg xmlns="http://www.w3.org/2000/svg" viewBox="0 0 220 220">
  <path d="M55 177c-27 0-46-19-46-44 0-23 17-41 40-43 8-35 35-58 68-58 38 0 68 29 70 67 16 7 26 21 26 39 0 23-18 39-43 39H55Z" fill="#a9d2df" stroke="#59443a" stroke-width="8" stroke-linejoin="round"/>
  <path d="M54 93c11-24 31-39 55-43" fill="none" stroke="#e0f1f5" stroke-width="13" stroke-linecap="round"/>
  <circle cx="82" cy="129" r="6" fill="#44362f"/><circle cx="140" cy="129" r="6" fill="#44362f"/>
  <path d="M91 151c11 8 27 8 38 0" fill="none" stroke="#44362f" stroke-width="6" stroke-linecap="round"/>
</svg>
