<svg xmlns="http://www.w3.org/2000/svg" viewBox="0 0 220 220">
  <path d="M65 65C45 38 18 44 19 73c1 29 18 48 42 47m94-55c20-27 47-21 46 8-1 29-18 48-42 47" fill="#a96f42" stroke="#59443a" stroke-width="8" stroke-linejoin="round"/>
  <path d="M48 127c0-50 27-84 62-84s62 34 62 84c0 51-25 82-62 82s-62-31-62-82Z" fill="#d59a5f" stroke="#59443a" stroke-width="8"/>
  <path d="M80 62c13-12 29-16 45-10" fill="none" stroke="#f1bf83" stroke-width="12" stroke-linecap="round"/>
  <circle cx="82" cy="120" r="6" fill="#44362f"/><circle cx="138" cy="120" r="6" fill="#44362f"/>
  <path d="M98 139c7-6 17-6 24 0-2 10-6 14-12 14s-10-4-12-14Z" fill="#44362f"/>
  <path d="M110 154c-2 13-14 18-26 10m26-10c2 13 14 18 26 10" fill="none" stroke="#59443a" stroke-width="5" stroke-linecap="round"/>
</svg>
